<?xml version="1.0" encoding="UTF-8" standalone="no"?>
<svg
   xmlns:dc="http://purl.org/dc/elements/1.1/"
   xmlns:cc="http://creativecommons.org/ns#"
   xmlns:rdf="http://www.w3.org/1999/02/22-rdf-syntax-ns#"
   xmlns:svg="http://www.w3.org/2000/svg"
   xmlns="http://www.w3.org/2000/svg"
   xmlns:sodipodi="http://sodipodi.sourceforge.net/DTD/sodipodi-0.dtd"
   xmlns:inkscape="http://www.inkscape.org/namespaces/inkscape"
   viewBox="0 0 50 48"
   height="48"
   width="50"
   id="svg4539"
   version="1.1"
   sodipodi:docname="06.svg"
   inkscape:version="0.92.2 5c3e80d, 2017-08-06">
  <sodipodi:namedview
     pagecolor="#ffffff"
     bordercolor="#666666"
     borderopacity="1"
     objecttolerance="10"
     gridtolerance="10"
     guidetolerance="10"
     inkscape:pageopacity="0"
     inkscape:pageshadow="2"
     inkscape:window-width="1337"
     inkscape:window-height="745"
     id="namedview862"
     showgrid="false"
     inkscape:zoom="8.1022652"
     inkscape:cx="15.352613"
     inkscape:cy="21.826298"
     inkscape:window-x="29"
     inkscape:window-y="0"
     inkscape:window-maximized="1"
     inkscape:current-layer="svg4539" />
  <metadata
     id="metadata4545">
    <rdf:RDF>
      <cc:Work
         rdf:about="">
        <dc:format>image/svg+xml</dc:format>
        <dc:type
           rdf:resource="http://purl.org/dc/dcmitype/StillImage" />
        <dc:title />
      </cc:Work>
    </rdf:RDF>
  </metadata>
  <defs
     id="defs4543" />
  <path
     id="path4549"
     d="m 49.134545,43.025455 c -2.826367,0.223948 -5.647096,0.43474 -6.545454,-3.84 0.676069,-6.102307 -2.746393,-13.074425 -7.68,-12.392728 0.213114,0.684821 0.142466,1.334172 0.96,2.094546 -0.293284,5.225709 2.681413,7.801704 5.323636,10.647272 0.581331,0.998382 0.781467,1.679101 0.872728,2.269091 -4.017824,-0.587138 -7.92732,-3.882467 -11.869091,-6.370909 0.101138,-1.697301 -0.323783,-2.400935 -0.96,-2.705454 0.09702,-0.976251 -0.130628,-1.411379 -0.261819,-2.007273 1.737227,-4.803659 3.361534,-9.610006 -1.658181,-14.574545 0.163577,-0.935742 -0.461551,-1.661163 -0.872728,-2.443637 -3.70948,5.862618 -4.347773,11.560709 1.134546,16.930909 0.176995,1.107414 0.315245,2.183832 0.08727,2.967273 -3.120221,-3.15427 -6.236305,-6.313711 -8.901819,-10.036364 -0.248188,-1.020216 -0.216825,-2.529646 0,-4.363636 2.612453,-4.687917 1.373701,-8.776757 -1.221818,-12.6545455 -2.78532,4.3707495 -3.517112,8.5738645 -0.610909,12.4800005 0.0986,0.442794 0.146243,0.987515 0,1.92 -1.06107,-2.302947 -2.841182,-4.685788 -4.625454,-7.069091 C 13.368592,6.9796362 9.8867014,3.2446665 5.3236364,0.26181818 4.4527018,5.9709634 4.7580465,11.198259 10.647273,14.138182 c 0.726635,1.401657 1.506644,2.643193 2.126932,4.363894 -0.706208,0.123373 -1.187013,-0.02374 -1.604489,-0.246844 C 8.8290944,14.18076 4.9763142,12.493907 0.43197796,11.898985 1.5483548,16.973434 4.5310586,19.89443 10.182338,19.736299 c 0.959664,0.13252 1.804336,-0.01422 3.147268,1.049089 2.888199,2.262447 5.617799,7.920533 8.022448,8.392715 -1.595311,1.231175 -2.95057,0.44591 -4.258069,-0.740534 -3.165669,-3.764796 -7.1915626,-5.325266 -12.2188052,-4.319779 2.7444677,4.364793 5.7784412,8.283264 12.4039382,6.664803 1.617635,0.34594 2.591894,0.875703 5.245447,0.925667 3.522099,3.660895 7.937318,6.683846 12.602708,9.528104 -2.810937,2.223075 -12.078876,-1.531107 -17.149091,3.054545 1.15431,1.072049 2.19512,2.323654 4.478663,2.939518 2.985778,0.805255 6.081195,0.492502 8.655882,-0.7577 1.893467,-2.554672 4.363439,-3.90829 7.243637,-4.407272 1.531977,1.42075 3.748035,2.157419 6.676363,2.181818 1.607372,0.02915 3.15849,0.02615 4.363637,-0.174546 0.490713,-0.428813 0.440315,-0.78299 -0.261819,-1.047272 z"
     style="display:inline;fill:#cdcdcf;fill-opacity:0.94117647;stroke:#000000;stroke-width:0;stroke-linecap:butt;stroke-linejoin:miter;stroke-miterlimit:4;stroke-dasharray:none;stroke-opacity:1" />
</svg>
